Coordinates
version=1
nRows=24
nColumns=24
inDegrees=yes

Units are S.I. units (second, meters, Newtons, ...)
Angles are in degrees.

endheader
time	pelvis_tilt	pelvis_list	pelvis_rotation	pelvis_tx	pelvis_ty	pelvis_tz	hip_flexion_r	hip_adduction_r	hip_rotation_r	knee_angle_r	ankle_angle_r	subtalar_angle_r	mtp_angle_r	hip_flexion_l	hip_adduction_l	hip_rotation_l	knee_angle_l	ankle_angle_l	subtalar_angle_l	mtp_angle_l	lumbar_extension	lumbar_bending	lumbar_rotation
      3.91000000	      8.78742468	      2.09218274	      2.45679107	     -2.37675011	      0.89103243	     -0.03642854	    -32.86063783	      7.21886785	     -8.96482963	     -6.92402964	     17.77326134	      5.03669807	      0.00000000	     11.75663531	      7.62483727	     11.00245262	     -3.26307360	      4.20618332	    -13.84700946	      0.00000000	    -26.26650069	     -1.69387401	      0.04993058
      3.92000000	      8.92691198	      2.25191636	      2.99265957	     -2.35816787	      0.89051666	     -0.03807323	    -31.99721754	      6.69113742	    -11.30092187	    -10.63408336	     16.21436801	      7.02889762	      0.00000000	     11.92057201	      8.45883635	     10.71644387	     -5.35251323	      4.07406858	    -13.04448474	      0.00000000	    -26.15646288	     -1.50686224	     -0.53918691
      3.93000000	      9.06991725	      2.49114253	      3.51941646	     -2.33990982	      0.89026149	     -0.03966173	    -30.83799328	      5.91577419	    -13.29772098	    -14.78062474	     14.04599856	      8.59987608	      0.00000000	     12.31515437	      9.30028811	     10.16068313	     -8.07451079	      4.44779674	    -11.63303009	      0.00000000	    -26.13576067	     -1.42497889	     -1.14215317
      3.94000000	      9.21549894	      2.71383739	      4.00984809	     -2.32209432	      0.89021509	     -0.04104707	    -29.38662380	      5.03719368	    -14.65175133	    -19.27301809	     11.22749475	      9.48003855	      0.00000000	     12.95370869	     10.01351200	      9.40109688	    -11.36230409	      5.51091849	     -9.64356347	      0.00000000	    -26.21330096	     -1.35787102	     -1.65568796
      3.95000000	      9.37800220	      2.93155373	      4.36819487	     -2.30466864	      0.89033339	     -0.04211758	    -27.64408528	      4.03228711	    -15.38741202	    -24.08043577	      8.10123086	     10.03218925	      0.00000000	     13.66747625	     10.61657576	      8.79474267	    -14.88916500	      6.74925980	     -8.08942914	      0.00000000	    -26.38701306	     -1.34523256	     -2.08850307
      3.96000000	      9.57370415	      3.11393263	      4.55623739	     -2.28764048	      0.89056830	     -0.04286743	    -25.63323358	      2.94302185	    -15.62033322	    -29.13367012	      5.09546898	     10.50255341	      0.00000000	     14.30601773	     11.10699324	      8.44951564	    -18.37743131	      8.11683626	     -7.08981496	      0.00000000	    -26.66685532	     -1.35070242	     -2.30998599
      3.97000000	      9.75025325	      3.33311714	      4.50770940	     -2.27086558	      0.89083827	     -0.04323576	    -23.35789603	      1.72859563	    -15.34692998	    -34.30851980	      2.66371050	     11.10265341	      0.00000000	     14.76096445	     11.57113657	      8.25778079	    -21.51323494	      9.54355147	     -6.69502702	      0.00000000	    -26.95126260	     -1.48569744	     -2.46366851
      3.98000000	      9.92002830	      3.59184135	      4.18107644	     -2.25437584	      0.89116381	     -0.04313777	    -20.88016430	      0.42317918	    -14.65248418	    -39.45805173	      1.07998863	     11.68442292	      0.00000000	     14.97884761	     11.94764088	      7.80397326	    -24.17388786	     11.07750979	     -6.30845368	      0.00000000	    -27.26196167	     -1.77091239	     -2.41533615
      3.99000000	      9.96962144	      3.91144619	      3.56560017	     -2.23805136	      0.89144937	     -0.04266553	    -18.12973184	     -0.96677185	    -13.57716833	    -44.46271827	      0.59657243	     12.35710206	      0.00000000	     14.94227855	     12.30103757	      7.25941131	    -26.12590707	     12.54322937	     -6.26235047	      0.00000000	    -27.41837415	     -2.23274754	     -2.22545323
      4.00000000	      9.94030778	      4.29239076	      2.69277796	     -2.22187206	      0.89182869	     -0.04183609	    -15.21370501	     -2.37076735	    -12.18860986	    -49.14194293	      1.10050018	     12.88612086	      0.00000000	     14.59514217	     12.60112854	      6.46572454	    -27.33622045	     14.02698699	     -6.18438362	      0.00000000	    -27.46035975	     -2.85157213	     -1.94081736
      4.01000000	      9.85985826	      4.71805490	      1.63456820	     -2.20582546	      0.89241150	     -0.04073116	    -12.20357759	     -3.72516965	    -10.60421878	    -53.36905347	      2.38910650	     13.19086246	      0.00000000	     13.92464074	     12.85208792	      5.46151231	    -27.83604414	     15.46996489	     -6.03146836	      0.00000000	    -27.40139200	     -3.58068781	     -1.61894907
      4.02000000	      9.75538885	      5.14367545	      0.46902372	     -2.18988429	      0.89332782	     -0.03943735	     -9.16800377	     -4.93573719	     -8.89121971	    -57.03646490	      4.16419975	     13.23583456	      0.00000000	     12.92640594	     13.04863436	      4.35635586	    -27.67883904	     16.83759991	     -5.75907226	      0.00000000	    -27.26141637	     -4.33585873	     -1.30454684
      4.03000000	      9.63128932	      5.51437547	     -0.67447001	     -2.17407813	      0.89460668	     -0.03807386	     -6.15634489	     -5.91644863	     -7.20158310	    -60.07767369	      6.15132739	     12.89844842	      0.00000000	     11.69341268	     13.17181197	      3.20835330	    -27.05007454	     18.10124468	     -5.32653638	      0.00000000	    -27.06602143	     -5.01170230	     -1.07101871
      4.04000000	      9.50954029	      5.78735734	     -1.68687789	     -2.15840156	      0.89629625	     -0.03676897	     -3.24958504	     -6.61932911	     -5.65640914	    -62.45151342	      8.13380056	     12.24069399	      0.00000000	     10.26379059	     13.22752494	      2.18121875	    -26.08705528	     19.20512647	     -4.80066680	      0.00000000	    -26.86634463	     -5.52087934	     -0.98474487
      4.05000000	      9.40551849	      5.93058275	     -2.47868448	     -2.14284272	      0.89838687	     -0.03568563	     -0.52287418	     -7.05008857	     -4.37742814	    -64.15579313	     10.12916953	     11.53763220	      0.00000000	      8.66633947	     13.24344370	      1.52552839	    -24.90026672	     20.02954155	     -4.47180710	      0.00000000	    -26.70921583	     -5.79152814	     -1.04591417
      4.06000000	      9.28089206	      5.93384477	     -2.99356607	     -2.12741153	      0.90074508	     -0.03485246	      2.02746879	     -7.21917510	     -3.42123703	    -65.21125942	     11.97138388	     10.68257006	      0.00000000	      7.02139901	     13.19459423	      1.25627705	    -23.64224451	     20.64035442	     -4.26361332	      0.00000000	    -26.58290339	     -5.80616408	     -1.31304918
      4.07000000	      9.16508134	      5.81450566	     -3.23637686	     -2.11209975	      0.90330156	     -0.03427889	      4.34795991	     -7.19163200	     -2.79601409	    -65.65508325	     13.67748413	      9.78889559	      0.00000000	      5.32632149	     13.09405716	      1.43223474	    -22.36820542	     21.04688727	     -4.25516466	      0.00000000	    -26.53895142	     -5.59360886	     -1.75928106
      4.08000000	      8.93805281	      5.59312852	     -3.19537951	     -2.09686679	      0.90576654	     -0.03402806	      6.56718442	     -7.03694819	     -2.52015330	    -65.55307959	     15.32351149	      8.99316843	      0.00000000	      3.72796684	     12.96079527	      2.16678575	    -21.10903264	     21.15854530	     -4.75231660	      0.00000000	    -26.42510540	     -5.16327317	     -2.36762716
      4.09000000	      8.73629298	      5.30363896	     -2.95833164	     -2.08170960	      0.90820585	     -0.03394500	      8.54374665	     -6.81365066	     -2.50725994	    -64.93054562	     16.83886421	      8.22767281	      0.00000000	      2.07550434	     12.78683201	      3.31585436	    -19.84107121	     21.05844163	     -5.53900867	      0.00000000	    -26.39902304	     -4.60550608	     -3.06470798
      4.10000000	      8.50397254	      4.97505914	     -2.61754531	     -2.06660555	      0.91041515	     -0.03390286	     10.37855051	     -6.55412948	     -2.64646026	    -63.86212942	     18.22707098	      7.55231264	      0.00000000	      0.43891998	     12.56893573	      4.73285772	    -18.55558165	     20.83319890	     -6.63260125	      0.00000000	    -26.37361440	     -3.99414416	     -3.78176574
      4.11000000	      8.24177845	      4.63278378	     -2.24259438	     -2.05152528	      0.91231520	     -0.03381980	     12.09117619	     -6.28274754	     -2.85791461	    -62.38788277	     19.47013028	      6.96352773	      0.00000000	     -1.18773726	     12.30989981	      6.27981996	    -17.22340398	     20.48601441	     -7.97154891	      0.00000000	    -26.33071022	     -3.37714172	     -4.45722300
      4.12000000	      7.95249484	      4.29648821	     -1.88016552	     -2.03644220	      0.91386924	     -0.03360055	     13.69011896	     -6.01253607	     -3.09702250	    -60.53488947	     20.53050439	      6.42953148	      0.00000000	     -2.81144418	     12.00447190	      7.80149135	    -15.82043881	     20.03573978	     -9.39672498	      0.00000000	    -26.25994371	     -2.80875944	     -5.03083121
      4.13000000	      7.64684566	      3.98357366	     -1.59426003	     -2.02132482	      0.91504806	     -0.03317272	     15.17883597	     -5.74285480	     -3.28971212	    -58.33130503	     21.39125186	      5.94653084	      0.00000000	     -4.44675291	     11.66853750	      9.18352925	    -14.32566425	     19.50088861	    -10.88637361	      0.00000000	    -26.16138024	     -2.32830449	     -5.46052478
      4.14000000	      7.31417517	      3.71824362	     -1.38617391	     -2.00615822	      0.91582066	     -0.03253792	     16.57373632	     -5.50145693	     -3.44626802	    -55.80364143	     22.07715926	      5.53803083	      0.00000000	     -6.08586272	     11.32825155	     10.38419984	    -12.72957681	     18.85473738	    -12.38970251	      0.00000000	    -26.02335094	     -1.96171319	     -5.77288637
